<svg xmlns="http://www.w3.org/2000/svg" xmlns:xlink="http://www.w3.org/1999/xlink" width="1920" zoomAndPan="magnify" viewBox="0 0 1440 809.999993" height="1080" preserveAspectRatio="xMidYMid meet" version="1.0"><defs><g/><clipPath id="d3380ca16c"><path d="M 522 179 L 918 179 L 918 522.855469 L 522 522.855469 Z M 522 179 " clip-rule="nonzero"/></clipPath></defs><rect x="-144" width="1728" fill="#ffffff" y="-80.999999" height="971.999992" fill-opacity="1"/><rect x="-144" width="1728" fill="#ffffff" y="-80.999999" height="971.999992" fill-opacity="1"/><g clip-path="url(#d3380ca16c)"><path fill="#153969" d="M 898.453125 306.875 L 860.390625 306.875 L 782.160156 188.078125 C 776.234375 179.25 764.378906 176.75 755.554688 182.675781 C 746.863281 188.472656 744.359375 200.324219 750.15625 209.148438 L 814.691406 306.875 L 625.300781 306.875 L 689.835938 209.148438 C 695.628906 200.324219 693.128906 188.472656 684.433594 182.675781 C 675.609375 176.75 663.757812 179.25 657.832031 188.078125 L 579.597656 306.875 L 541.535156 306.875 C 531 306.875 522.4375 315.433594 522.4375 325.972656 C 522.4375 336.640625 531 345.199219 541.535156 345.199219 L 550.097656 345.199219 L 579.597656 478.617188 C 585.523438 505.089844 608.574219 523.527344 635.703125 523.527344 L 804.285156 523.527344 C 831.417969 523.527344 854.464844 505.089844 860.390625 478.617188 L 889.894531 345.199219 L 898.453125 345.199219 C 908.992188 345.199219 917.550781 336.640625 917.550781 325.972656 C 917.550781 315.433594 908.992188 306.875 898.453125 306.875 Z M 675.347656 445.691406 C 675.347656 456.226562 666.789062 464.785156 656.25 464.785156 C 645.714844 464.785156 637.152344 456.226562 637.152344 445.691406 L 637.152344 384.84375 C 637.152344 374.304688 645.714844 365.746094 656.25 365.746094 C 666.789062 365.746094 675.347656 374.304688 675.347656 384.84375 Z M 739.09375 445.691406 C 739.09375 456.226562 730.53125 464.785156 719.996094 464.785156 C 709.460938 464.785156 700.898438 456.226562 700.898438 445.691406 L 700.898438 384.84375 C 700.898438 374.304688 709.460938 365.746094 719.996094 365.746094 C 730.53125 365.746094 739.09375 374.304688 739.09375 384.84375 Z M 802.835938 445.691406 C 802.835938 456.226562 794.277344 464.785156 783.742188 464.785156 C 773.203125 464.785156 764.644531 456.226562 764.644531 445.691406 L 764.644531 384.84375 C 764.644531 374.304688 773.203125 365.746094 783.742188 365.746094 C 794.277344 365.746094 802.835938 374.304688 802.835938 384.84375 Z M 802.835938 445.691406 " fill-opacity="1" fill-rule="nonzero"/></g><g fill="#153969" fill-opacity="1"><g transform="translate(445.382864, 626.35127)"><g><path d="M 41.21875 0 L 31 0 L 13.921875 -25.859375 L 13.921875 0 L 3.703125 0 L 3.703125 -41.9375 L 13.921875 -41.9375 L 31 -15.953125 L 31 -41.9375 L 41.21875 -41.9375 Z M 41.21875 0 "/></g></g></g><g fill="#153969" fill-opacity="1"><g transform="translate(490.305761, 626.35127)"><g><path d="M 18.875 0.484375 C 15.613281 0.484375 12.675781 -0.210938 10.0625 -1.609375 C 7.457031 -3.003906 5.40625 -4.992188 3.90625 -7.578125 C 2.414062 -10.171875 1.671875 -13.203125 1.671875 -16.671875 C 1.671875 -20.085938 2.425781 -23.097656 3.9375 -25.703125 C 5.457031 -28.316406 7.53125 -30.320312 10.15625 -31.71875 C 12.78125 -33.113281 15.726562 -33.8125 19 -33.8125 C 22.257812 -33.8125 25.203125 -33.113281 27.828125 -31.71875 C 30.460938 -30.320312 32.535156 -28.316406 34.046875 -25.703125 C 35.554688 -23.097656 36.3125 -20.085938 36.3125 -16.671875 C 36.3125 -13.242188 35.546875 -10.222656 34.015625 -7.609375 C 32.484375 -5.003906 30.394531 -3.003906 27.75 -1.609375 C 25.101562 -0.210938 22.144531 0.484375 18.875 0.484375 Z M 18.875 -8.359375 C 20.820312 -8.359375 22.484375 -9.070312 23.859375 -10.5 C 25.234375 -11.9375 25.921875 -13.992188 25.921875 -16.671875 C 25.921875 -19.335938 25.253906 -21.382812 23.921875 -22.8125 C 22.585938 -24.25 20.945312 -24.96875 19 -24.96875 C 17.007812 -24.96875 15.351562 -24.257812 14.03125 -22.84375 C 12.71875 -21.4375 12.0625 -19.378906 12.0625 -16.671875 C 12.0625 -13.992188 12.707031 -11.9375 14 -10.5 C 15.300781 -9.070312 16.925781 -8.359375 18.875 -8.359375 Z M 18.875 -8.359375 "/></g></g></g><g fill="#153969" fill-opacity="1"><g transform="translate(528.358798, 626.35127)"><g/></g></g><g fill="#153969" fill-opacity="1"><g transform="translate(541.023242, 626.35127)"><g><path d="M 35.65625 -28.4375 C 35.65625 -26.007812 35.097656 -23.785156 33.984375 -21.765625 C 32.867188 -19.753906 31.15625 -18.128906 28.84375 -16.890625 C 26.539062 -15.660156 23.675781 -15.046875 20.25 -15.046875 L 13.921875 -15.046875 L 13.921875 0 L 3.703125 0 L 3.703125 -41.9375 L 20.25 -41.9375 C 23.59375 -41.9375 26.421875 -41.359375 28.734375 -40.203125 C 31.046875 -39.046875 32.773438 -37.453125 33.921875 -35.421875 C 35.078125 -33.390625 35.65625 -31.0625 35.65625 -28.4375 Z M 19.46875 -23.171875 C 21.425781 -23.171875 22.878906 -23.628906 23.828125 -24.546875 C 24.785156 -25.460938 25.265625 -26.757812 25.265625 -28.4375 C 25.265625 -30.101562 24.785156 -31.394531 23.828125 -32.3125 C 22.878906 -33.226562 21.425781 -33.6875 19.46875 -33.6875 L 13.921875 -33.6875 L 13.921875 -23.171875 Z M 19.46875 -23.171875 "/></g></g></g><g fill="#153969" fill-opacity="1"><g transform="translate(578.29969, 626.35127)"><g><path d="M 13.921875 -27.78125 C 15.109375 -29.613281 16.597656 -31.054688 18.390625 -32.109375 C 20.191406 -33.160156 22.1875 -33.6875 24.375 -33.6875 L 24.375 -22.875 L 21.5625 -22.875 C 19.007812 -22.875 17.097656 -22.328125 15.828125 -21.234375 C 14.554688 -20.140625 13.921875 -18.21875 13.921875 -15.46875 L 13.921875 0 L 3.703125 0 L 3.703125 -33.328125 L 13.921875 -33.328125 Z M 13.921875 -27.78125 "/></g></g></g><g fill="#153969" fill-opacity="1"><g transform="translate(603.867521, 626.35127)"><g><path d="M 18.875 0.484375 C 15.613281 0.484375 12.675781 -0.210938 10.0625 -1.609375 C 7.457031 -3.003906 5.40625 -4.992188 3.90625 -7.578125 C 2.414062 -10.171875 1.671875 -13.203125 1.671875 -16.671875 C 1.671875 -20.085938 2.425781 -23.097656 3.9375 -25.703125 C 5.457031 -28.316406 7.53125 -30.320312 10.15625 -31.71875 C 12.78125 -33.113281 15.726562 -33.8125 19 -33.8125 C 22.257812 -33.8125 25.203125 -33.113281 27.828125 -31.71875 C 30.460938 -30.320312 32.535156 -28.316406 34.046875 -25.703125 C 35.554688 -23.097656 36.3125 -20.085938 36.3125 -16.671875 C 36.3125 -13.242188 35.546875 -10.222656 34.015625 -7.609375 C 32.484375 -5.003906 30.394531 -3.003906 27.75 -1.609375 C 25.101562 -0.210938 22.144531 0.484375 18.875 0.484375 Z M 18.875 -8.359375 C 20.820312 -8.359375 22.484375 -9.070312 23.859375 -10.5 C 25.234375 -11.9375 25.921875 -13.992188 25.921875 -16.671875 C 25.921875 -19.335938 25.253906 -21.382812 23.921875 -22.8125 C 22.585938 -24.25 20.945312 -24.96875 19 -24.96875 C 17.007812 -24.96875 15.351562 -24.257812 14.03125 -22.84375 C 12.71875 -21.4375 12.0625 -19.378906 12.0625 -16.671875 C 12.0625 -13.992188 12.707031 -11.9375 14 -10.5 C 15.300781 -9.070312 16.925781 -8.359375 18.875 -8.359375 Z M 18.875 -8.359375 "/></g></g></g><g fill="#153969" fill-opacity="1"><g transform="translate(641.920558, 626.35127)"><g><path d="M 1.671875 -16.71875 C 1.671875 -20.144531 2.316406 -23.148438 3.609375 -25.734375 C 4.910156 -28.328125 6.675781 -30.320312 8.90625 -31.71875 C 11.132812 -33.113281 13.625 -33.8125 16.375 -33.8125 C 18.5625 -33.8125 20.5625 -33.351562 22.375 -32.4375 C 24.1875 -31.519531 25.609375 -30.285156 26.640625 -28.734375 L 26.640625 -44.203125 L 36.859375 -44.203125 L 36.859375 0 L 26.640625 0 L 26.640625 -4.78125 C 25.679688 -3.1875 24.316406 -1.910156 22.546875 -0.953125 C 20.773438 0.00390625 18.71875 0.484375 16.375 0.484375 C 13.625 0.484375 11.132812 -0.222656 8.90625 -1.640625 C 6.675781 -3.054688 4.910156 -5.066406 3.609375 -7.671875 C 2.316406 -10.285156 1.671875 -13.300781 1.671875 -16.71875 Z M 26.640625 -16.671875 C 26.640625 -19.210938 25.929688 -21.21875 24.515625 -22.6875 C 23.109375 -24.164062 21.390625 -24.90625 19.359375 -24.90625 C 17.328125 -24.90625 15.601562 -24.175781 14.1875 -22.71875 C 12.769531 -21.269531 12.0625 -19.269531 12.0625 -16.71875 C 12.0625 -14.175781 12.769531 -12.15625 14.1875 -10.65625 C 15.601562 -9.164062 17.328125 -8.421875 19.359375 -8.421875 C 21.390625 -8.421875 23.109375 -9.15625 24.515625 -10.625 C 25.929688 -12.101562 26.640625 -14.117188 26.640625 -16.671875 Z M 26.640625 -16.671875 "/></g></g></g><g fill="#153969" fill-opacity="1"><g transform="translate(682.482582, 626.35127)"><g><path d="M 36.609375 -33.328125 L 36.609375 0 L 26.40625 0 L 26.40625 -4.546875 C 25.363281 -3.066406 23.957031 -1.878906 22.1875 -0.984375 C 20.414062 -0.0859375 18.457031 0.359375 16.3125 0.359375 C 13.757812 0.359375 11.503906 -0.207031 9.546875 -1.34375 C 7.597656 -2.476562 6.085938 -4.117188 5.015625 -6.265625 C 3.941406 -8.421875 3.40625 -10.953125 3.40625 -13.859375 L 3.40625 -33.328125 L 13.5625 -33.328125 L 13.5625 -15.234375 C 13.5625 -13.003906 14.140625 -11.269531 15.296875 -10.03125 C 16.453125 -8.800781 18.003906 -8.1875 19.953125 -8.1875 C 21.941406 -8.1875 23.515625 -8.800781 24.671875 -10.03125 C 25.828125 -11.269531 26.40625 -13.003906 26.40625 -15.234375 L 26.40625 -33.328125 Z M 36.609375 -33.328125 "/></g></g></g><g fill="#153969" fill-opacity="1"><g transform="translate(722.74592, 626.35127)"><g><path d="M 1.671875 -16.671875 C 1.671875 -20.128906 2.375 -23.148438 3.78125 -25.734375 C 5.195312 -28.328125 7.171875 -30.320312 9.703125 -31.71875 C 12.234375 -33.113281 15.128906 -33.8125 18.390625 -33.8125 C 22.578125 -33.8125 26.070312 -32.710938 28.875 -30.515625 C 31.6875 -28.328125 33.53125 -25.242188 34.40625 -21.265625 L 23.53125 -21.265625 C 22.613281 -23.816406 20.84375 -25.09375 18.21875 -25.09375 C 16.34375 -25.09375 14.847656 -24.363281 13.734375 -22.90625 C 12.617188 -21.457031 12.0625 -19.378906 12.0625 -16.671875 C 12.0625 -13.960938 12.617188 -11.878906 13.734375 -10.421875 C 14.847656 -8.972656 16.34375 -8.25 18.21875 -8.25 C 20.84375 -8.25 22.613281 -9.519531 23.53125 -12.0625 L 34.40625 -12.0625 C 33.53125 -8.164062 31.675781 -5.097656 28.84375 -2.859375 C 26.019531 -0.628906 22.535156 0.484375 18.390625 0.484375 C 15.128906 0.484375 12.234375 -0.210938 9.703125 -1.609375 C 7.171875 -3.003906 5.195312 -4.992188 3.78125 -7.578125 C 2.375 -10.171875 1.671875 -13.203125 1.671875 -16.671875 Z M 1.671875 -16.671875 "/></g></g></g><g fill="#153969" fill-opacity="1"><g transform="translate(758.887345, 626.35127)"><g><path d="M 22.28125 -8.65625 L 22.28125 0 L 17.078125 0 C 13.378906 0 10.492188 -0.90625 8.421875 -2.71875 C 6.347656 -4.53125 5.3125 -7.488281 5.3125 -11.59375 L 5.3125 -24.84375 L 1.25 -24.84375 L 1.25 -33.328125 L 5.3125 -33.328125 L 5.3125 -41.453125 L 15.53125 -41.453125 L 15.53125 -33.328125 L 22.21875 -33.328125 L 22.21875 -24.84375 L 15.53125 -24.84375 L 15.53125 -11.46875 C 15.53125 -10.46875 15.769531 -9.75 16.25 -9.3125 C 16.726562 -8.875 17.523438 -8.65625 18.640625 -8.65625 Z M 22.28125 -8.65625 "/></g></g></g><g fill="#153969" fill-opacity="1"><g transform="translate(783.140936, 626.35127)"><g/></g></g><g fill="#153969" fill-opacity="1"><g transform="translate(795.8054, 626.35127)"><g><path d="M 13.921875 -41.9375 L 13.921875 0 L 3.703125 0 L 3.703125 -41.9375 Z M 13.921875 -41.9375 "/></g></g></g><g fill="#153969" fill-opacity="1"><g transform="translate(813.428072, 626.35127)"><g><path d="M 46.234375 -33.6875 C 50.378906 -33.6875 53.675781 -32.429688 56.125 -29.921875 C 58.570312 -27.410156 59.796875 -23.925781 59.796875 -19.46875 L 59.796875 0 L 49.640625 0 L 49.640625 -18.09375 C 49.640625 -20.25 49.070312 -21.910156 47.9375 -23.078125 C 46.800781 -24.253906 45.238281 -24.84375 43.25 -24.84375 C 41.257812 -24.84375 39.695312 -24.253906 38.5625 -23.078125 C 37.425781 -21.910156 36.859375 -20.25 36.859375 -18.09375 L 36.859375 0 L 26.703125 0 L 26.703125 -18.09375 C 26.703125 -20.25 26.132812 -21.910156 25 -23.078125 C 23.863281 -24.253906 22.300781 -24.84375 20.3125 -24.84375 C 18.320312 -24.84375 16.757812 -24.253906 15.625 -23.078125 C 14.488281 -21.910156 13.921875 -20.25 13.921875 -18.09375 L 13.921875 0 L 3.703125 0 L 3.703125 -33.328125 L 13.921875 -33.328125 L 13.921875 -29.15625 C 14.953125 -30.539062 16.300781 -31.640625 17.96875 -32.453125 C 19.644531 -33.273438 21.539062 -33.6875 23.65625 -33.6875 C 26.164062 -33.6875 28.40625 -33.148438 30.375 -32.078125 C 32.34375 -31.003906 33.882812 -29.472656 35 -27.484375 C 36.15625 -29.304688 37.726562 -30.796875 39.71875 -31.953125 C 41.707031 -33.109375 43.878906 -33.6875 46.234375 -33.6875 Z M 46.234375 -33.6875 "/></g></g></g><g fill="#153969" fill-opacity="1"><g transform="translate(876.690507, 626.35127)"><g><path d="M 1.671875 -16.71875 C 1.671875 -20.144531 2.316406 -23.148438 3.609375 -25.734375 C 4.910156 -28.328125 6.675781 -30.320312 8.90625 -31.71875 C 11.132812 -33.113281 13.625 -33.8125 16.375 -33.8125 C 18.71875 -33.8125 20.773438 -33.332031 22.546875 -32.375 C 24.316406 -31.414062 25.679688 -30.160156 26.640625 -28.609375 L 26.640625 -33.328125 L 36.859375 -33.328125 L 36.859375 0 L 26.640625 0 L 26.640625 -4.71875 C 25.640625 -3.164062 24.253906 -1.910156 22.484375 -0.953125 C 20.710938 0.00390625 18.65625 0.484375 16.3125 0.484375 C 13.601562 0.484375 11.132812 -0.222656 8.90625 -1.640625 C 6.675781 -3.054688 4.910156 -5.066406 3.609375 -7.671875 C 2.316406 -10.285156 1.671875 -13.300781 1.671875 -16.71875 Z M 26.640625 -16.671875 C 26.640625 -19.210938 25.929688 -21.21875 24.515625 -22.6875 C 23.109375 -24.164062 21.390625 -24.90625 19.359375 -24.90625 C 17.328125 -24.90625 15.601562 -24.175781 14.1875 -22.71875 C 12.769531 -21.269531 12.0625 -19.269531 12.0625 -16.71875 C 12.0625 -14.175781 12.769531 -12.15625 14.1875 -10.65625 C 15.601562 -9.164062 17.328125 -8.421875 19.359375 -8.421875 C 21.390625 -8.421875 23.109375 -9.15625 24.515625 -10.625 C 25.929688 -12.101562 26.640625 -14.117188 26.640625 -16.671875 Z M 26.640625 -16.671875 "/></g></g></g><g fill="#153969" fill-opacity="1"><g transform="translate(917.252532, 626.35127)"><g><path d="M 16.375 -33.8125 C 18.71875 -33.8125 20.773438 -33.332031 22.546875 -32.375 C 24.316406 -31.414062 25.679688 -30.160156 26.640625 -28.609375 L 26.640625 -33.328125 L 36.859375 -33.328125 L 36.859375 -0.0625 C 36.859375 3.007812 36.25 5.785156 35.03125 8.265625 C 33.820312 10.753906 31.972656 12.734375 29.484375 14.203125 C 26.992188 15.679688 23.894531 16.421875 20.1875 16.421875 C 15.25 16.421875 11.242188 15.253906 8.171875 12.921875 C 5.109375 10.597656 3.359375 7.445312 2.921875 3.46875 L 13.015625 3.46875 C 13.335938 4.738281 14.09375 5.742188 15.28125 6.484375 C 16.476562 7.222656 17.957031 7.59375 19.71875 7.59375 C 21.820312 7.59375 23.5 6.984375 24.75 5.765625 C 26.007812 4.546875 26.640625 2.601562 26.640625 -0.0625 L 26.640625 -4.78125 C 25.640625 -3.226562 24.265625 -1.960938 22.515625 -0.984375 C 20.765625 -0.00390625 18.71875 0.484375 16.375 0.484375 C 13.625 0.484375 11.132812 -0.222656 8.90625 -1.640625 C 6.675781 -3.054688 4.910156 -5.066406 3.609375 -7.671875 C 2.316406 -10.285156 1.671875 -13.300781 1.671875 -16.71875 C 1.671875 -20.144531 2.316406 -23.148438 3.609375 -25.734375 C 4.910156 -28.328125 6.675781 -30.320312 8.90625 -31.71875 C 11.132812 -33.113281 13.625 -33.8125 16.375 -33.8125 Z M 26.640625 -16.671875 C 26.640625 -19.210938 25.929688 -21.21875 24.515625 -22.6875 C 23.109375 -24.164062 21.390625 -24.90625 19.359375 -24.90625 C 17.328125 -24.90625 15.601562 -24.175781 14.1875 -22.71875 C 12.769531 -21.269531 12.0625 -19.269531 12.0625 -16.71875 C 12.0625 -14.175781 12.769531 -12.15625 14.1875 -10.65625 C 15.601562 -9.164062 17.328125 -8.421875 19.359375 -8.421875 C 21.390625 -8.421875 23.109375 -9.15625 24.515625 -10.625 C 25.929688 -12.101562 26.640625 -14.117188 26.640625 -16.671875 Z M 26.640625 -16.671875 "/></g></g></g><g fill="#153969" fill-opacity="1"><g transform="translate(957.814556, 626.35127)"><g><path d="M 35.125 -17.203125 C 35.125 -16.242188 35.0625 -15.25 34.9375 -14.21875 L 11.828125 -14.21875 C 11.984375 -12.144531 12.648438 -10.5625 13.828125 -9.46875 C 15.003906 -8.375 16.445312 -7.828125 18.15625 -7.828125 C 20.707031 -7.828125 22.476562 -8.898438 23.46875 -11.046875 L 34.34375 -11.046875 C 33.789062 -8.859375 32.785156 -6.890625 31.328125 -5.140625 C 29.878906 -3.390625 28.054688 -2.015625 25.859375 -1.015625 C 23.671875 -0.015625 21.222656 0.484375 18.515625 0.484375 C 15.253906 0.484375 12.347656 -0.210938 9.796875 -1.609375 C 7.242188 -3.003906 5.25 -4.992188 3.8125 -7.578125 C 2.382812 -10.171875 1.671875 -13.203125 1.671875 -16.671875 C 1.671875 -20.128906 2.375 -23.148438 3.78125 -25.734375 C 5.195312 -28.328125 7.179688 -30.320312 9.734375 -31.71875 C 12.285156 -33.113281 15.210938 -33.8125 18.515625 -33.8125 C 21.742188 -33.8125 24.609375 -33.132812 27.109375 -31.78125 C 29.617188 -30.425781 31.582031 -28.492188 33 -25.984375 C 34.414062 -23.472656 35.125 -20.546875 35.125 -17.203125 Z M 24.671875 -19.890625 C 24.671875 -21.640625 24.070312 -23.03125 22.875 -24.0625 C 21.6875 -25.101562 20.191406 -25.625 18.390625 -25.625 C 16.679688 -25.625 15.238281 -25.125 14.0625 -24.125 C 12.894531 -23.132812 12.171875 -21.722656 11.890625 -19.890625 Z M 24.671875 -19.890625 "/></g></g></g></svg>